<?xml version="1.0" encoding="utf-8"?>
<!-- Generator: Adobe Illustrator 26.1.0, SVG Export Plug-In . SVG Version: 6.00 Build 0)  -->
<svg version="1.1" id="Layer_1" xmlns="http://www.w3.org/2000/svg" xmlns:xlink="http://www.w3.org/1999/xlink" x="0px" y="0px"
	 viewBox="0 0 300 126" style="enable-background:new 0 0 300 126;" xml:space="preserve">
<style type="text/css">
	.st0{fill:#D9534F;}
</style>
<g>
	<g>
		<g>
			<path class="st0" d="M58.9,58.8l-12-35.3L35,58.8H19.4L0-0.1h18.7l10,33.7l11-33.7h15.9l10.9,33.7l10-33.7h16.9L74.6,58.8H58.9z"
				/>
			<path class="st0" d="M116.8,58.8V-0.1h17v58.9C133.8,58.8,116.8,58.8,116.8,58.8z"/>
			<path class="st0" d="M162.1,58.8V-0.1h50.7v13.7h-33.7v7.7h20.1v14h-20.1v9h37v14.4h-54V58.8z"/>
			<path class="st0" d="M285.7,58.8l-28.4-36.1v36.1h-16.7V-0.1h19l24,31.4V-0.1H300v58.9C300,58.8,285.7,58.8,285.7,58.8z"/>
		</g>
		<g>
			<path class="st0" d="M12.4,106.1v13.6c0,2-0.5,3.5-1.6,4.6S8.2,126,6.3,126s-3.4-0.6-4.5-1.7c-1.1-1.2-1.6-2.7-1.6-4.6v-5.2H2
				v5.2c0,1.4,0.4,2.5,1.1,3.3c0.8,0.8,1.8,1.2,3.2,1.2s2.5-0.4,3.2-1.2c0.7-0.8,1.1-1.9,1.1-3.4V106L12.4,106.1L12.4,106.1z"/>
			<path class="st0" d="M21.7,125.7v-19.6h14.9v1.7H23.5v6.7h8v1.7h-8v7.9h14.2v1.7L21.7,125.7L21.7,125.7z"/>
			<path class="st0" d="M42.8,107.8v-1.7h19v1.7h-8.6v17.9h-1.8v-17.9H42.8z"/>
			<path class="st0" d="M85.8,124v1.7H67.5v-1l14.1-16.9H67.7v-1.7h16.6v1.1l-14,16.8H85.8z"/>
			<path class="st0" d="M90.7,107.8v-1.7h19v1.7h-8.6v17.9h-1.8v-17.9H90.7z"/>
			<path class="st0" d="M127.5,125.7v-19.6H143v1.7h-13.7v6.6h8.2v1.7h-8.2v9.6C129.3,125.7,127.5,125.7,127.5,125.7z"/>
			<path class="st0" d="M153.8,122.4c1.2,1.2,2.8,1.9,4.8,1.9s3.7-0.6,4.8-1.9c1.2-1.3,1.7-3,1.7-5v-11.2h1.8v11.3
				c0,2.6-0.8,4.7-2.3,6.3c-1.5,1.6-3.6,2.3-6.1,2.3c-2.7,0-4.7-0.8-6.2-2.3c-1.5-1.6-2.2-3.7-2.2-6.3v-11.3h1.8v11.2
				C152,119.5,152.6,121.2,153.8,122.4z M154.9,104.1v-3.8h1.7v3.8H154.9z M160.6,104.1v-3.8h1.7v3.8H160.6z"/>
			<path class="st0" d="M186.9,125.7v-19.6h1.8v19.6H186.9z"/>
			<path class="st0" d="M201,106.1l7.8,17.2l7.8-17.2h2.8v19.6h-1.7v-18.1l-8.3,18.2h-1.2l-8.3-18.2v18h-1.7V106L201,106.1
				L201,106.1z"/>
			<path class="st0" d="M231.7,106.1l7.8,17.2l7.8-17.2h2.8v19.6h-1.7v-18.1l-8.3,18.2h-1.2l-8.3-18.2v18h-1.7V106L231.7,106.1
				L231.7,106.1z"/>
			<path class="st0" d="M259.4,125.7v-19.6h14.9v1.7h-13.1v6.7h8v1.7h-8v7.9h14.2v1.7L259.4,125.7L259.4,125.7z"/>
			<path class="st0" d="M282.9,125.7v-19.6h10.2c1.9,0,3.3,0.4,4.5,1.3c1.1,0.9,1.7,2.2,1.7,4c0,1.4-0.4,2.5-1.2,3.4
				c-0.8,0.9-1.8,1.4-3.2,1.6l5.1,9.3h-2l-5.1-9.2h-8.2v9.2C284.7,125.7,282.9,125.7,282.9,125.7z M293,107.8h-8.3v7.1h8.3
				c1.3,0,2.3-0.3,3.1-0.8c0.8-0.6,1.2-1.4,1.2-2.7c0-1.3-0.4-2.2-1.2-2.7C295.4,108.1,294.3,107.8,293,107.8z"/>
		</g>
	</g>
</g>
</svg>
