<?xml version="1.0" encoding="utf-8"?>
<!-- Generator: Adobe Illustrator 26.1.0, SVG Export Plug-In . SVG Version: 6.00 Build 0)  -->
<svg version="1.1" id="Layer_1" xmlns="http://www.w3.org/2000/svg" xmlns:xlink="http://www.w3.org/1999/xlink" x="0px" y="0px"
	 viewBox="0 0 100 100" style="enable-background:new 0 0 100 100;" xml:space="preserve">
<style type="text/css">
	.st0{fill:#D9534F;}
</style>
<g>
	<path class="st0" d="M17.9,38.7c-3.7,0-5.5,0.9-5.5,2.6c0,0.8,0.4,1.5,1.1,1.9c0.7,0.5,1.7,0.8,3.1,0.9l5.3,0.4
		c2.2,0.1,4.2,0.5,6,0.9s3.4,1.2,4.9,2.1c1.5,0.9,2.6,2.2,3.4,3.8c0.8,1.6,1.2,3.6,1.2,5.8c0,2.4-0.5,4.5-1.5,6.3s-2.4,3.1-4.2,4
		c-1.8,0.9-3.6,1.6-5.6,2c-2,0.4-4.1,0.6-6.4,0.6c-2.2,0-4.4-0.2-6.4-0.6c-2-0.4-4-1.1-5.9-2c-1.9-0.9-3.5-2.2-4.8-3.8
		S0.4,60,0,57.8h11.7c0.2,0.4,0.5,0.8,0.9,1.2s0.9,0.8,1.6,1.1c1.4,0.8,3.2,1.2,5.6,1.2c4.1,0,6.1-1.1,6.1-3.4
		c0-1.8-1.5-2.8-4.5-3.1c-1.8-0.2-3.6-0.4-5.4-0.5c-2-0.2-3.9-0.5-5.6-1.1c-1.7-0.5-3.3-1.3-4.7-2.2c-1.5-0.9-2.6-2.2-3.4-3.8
		C1.4,45.7,1,43.9,1,41.8c0-2.2,0.5-4.1,1.5-5.7c1-1.6,2.4-2.9,4.1-3.7c1.7-0.8,3.5-1.4,5.4-1.8s3.9-0.6,5.9-0.6
		c2.1,0,4.1,0.2,6,0.5c1.9,0.4,3.7,0.9,5.5,1.7c1.8,0.8,3.3,2,4.5,3.5s2.1,3.3,2.6,5.4H25.4c-0.3-0.4-1-1-2.3-1.6
		C21.9,39,20.2,38.7,17.9,38.7z"/>
	<path class="st0" d="M77.4,69.3l-7.8-23.1l-7.8,23.1H51.6L38.9,30.8h12.2l6.6,22l7.2-22h10.4l7.2,22l6.6-22H100L87.6,69.3H77.4z"/>
</g>
</svg>
